<mxfile host="app.diagrams.net" modified="2024-05-19T16:16:56.609Z" agent="Mozilla/5.0 (Windows NT 10.0; Win64; x64) AppleWebKit/537.36 (KHTML, like Gecko) Chrome/124.0.0.0 Safari/537.36" etag="GgjCrQSPn5VGbMp7nMRX" version="24.4.4" type="device">
  <diagram name="Page-1" id="sI9e1fHFrfJs-_LdTwua">
    <mxGraphModel dx="1651" dy="655" grid="1" gridSize="10" guides="1" tooltips="1" connect="1" arrows="1" fold="1" page="1" pageScale="1" pageWidth="1169" pageHeight="827" math="0" shadow="0">
      <root>
        <mxCell id="0" />
        <mxCell id="1" parent="0" />
        <mxCell id="vs6JcDgXwGCLQ-Z0eXuk-1" value="&lt;font style=&quot;font-size: 17px;&quot;&gt;Doctor&lt;br&gt;D1&lt;/font&gt;" style="whiteSpace=wrap;html=1;aspect=fixed;" vertex="1" parent="1">
          <mxGeometry x="120" y="80" width="120" height="120" as="geometry" />
        </mxCell>
        <mxCell id="vs6JcDgXwGCLQ-Z0eXuk-8" style="edgeStyle=orthogonalEdgeStyle;rounded=0;orthogonalLoop=1;jettySize=auto;html=1;exitX=0;exitY=0.75;exitDx=0;exitDy=0;entryX=1;entryY=1;entryDx=0;entryDy=0;" edge="1" parent="1" source="vs6JcDgXwGCLQ-Z0eXuk-2" target="vs6JcDgXwGCLQ-Z0eXuk-3">
          <mxGeometry relative="1" as="geometry" />
        </mxCell>
        <mxCell id="vs6JcDgXwGCLQ-Z0eXuk-9" value="&lt;font style=&quot;font-size: 14px;&quot;&gt;Result&lt;/font&gt;&lt;div&gt;&lt;font style=&quot;font-size: 14px;&quot;&gt;doctor.[name]&lt;/font&gt;&lt;/div&gt;" style="edgeLabel;html=1;align=center;verticalAlign=middle;resizable=0;points=[];" vertex="1" connectable="0" parent="vs6JcDgXwGCLQ-Z0eXuk-8">
          <mxGeometry x="-0.2667" y="-2" relative="1" as="geometry">
            <mxPoint y="-18" as="offset" />
          </mxGeometry>
        </mxCell>
        <mxCell id="vs6JcDgXwGCLQ-Z0eXuk-2" value="&lt;font style=&quot;font-size: 17px;&quot;&gt;Technician 1&lt;br&gt;Hip, Elbow&lt;/font&gt;" style="whiteSpace=wrap;html=1;aspect=fixed;" vertex="1" parent="1">
          <mxGeometry x="810" y="80" width="120" height="120" as="geometry" />
        </mxCell>
        <mxCell id="vs6JcDgXwGCLQ-Z0eXuk-6" value="&lt;font style=&quot;font-size: 14px;&quot;&gt;technician.elbow&lt;br&gt;technician.hip&lt;/font&gt;" style="edgeStyle=orthogonalEdgeStyle;rounded=0;orthogonalLoop=1;jettySize=auto;html=1;exitX=1;exitY=0;exitDx=0;exitDy=0;entryX=0;entryY=0.25;entryDx=0;entryDy=0;" edge="1" parent="1">
          <mxGeometry x="0.2667" y="20" relative="1" as="geometry">
            <mxPoint x="510" y="110" as="sourcePoint" />
            <mxPoint x="810" y="110" as="targetPoint" />
            <mxPoint as="offset" />
          </mxGeometry>
        </mxCell>
        <mxCell id="vs6JcDgXwGCLQ-Z0eXuk-7" value="&lt;font style=&quot;font-size: 14px;&quot;&gt;technician.elbow&lt;br&gt;technician.knee&lt;/font&gt;" style="edgeStyle=orthogonalEdgeStyle;rounded=0;orthogonalLoop=1;jettySize=auto;html=1;exitX=1;exitY=0;exitDx=0;exitDy=0;entryX=0;entryY=0.75;entryDx=0;entryDy=0;" edge="1" parent="1" source="vs6JcDgXwGCLQ-Z0eXuk-3" target="vs6JcDgXwGCLQ-Z0eXuk-5">
          <mxGeometry x="0.6" y="20" relative="1" as="geometry">
            <Array as="points">
              <mxPoint x="590" y="110" />
              <mxPoint x="590" y="360" />
            </Array>
            <mxPoint as="offset" />
          </mxGeometry>
        </mxCell>
        <mxCell id="vs6JcDgXwGCLQ-Z0eXuk-11" style="edgeStyle=orthogonalEdgeStyle;rounded=0;orthogonalLoop=1;jettySize=auto;html=1;exitX=0;exitY=1;exitDx=0;exitDy=0;entryX=1;entryY=0.75;entryDx=0;entryDy=0;" edge="1" parent="1" source="vs6JcDgXwGCLQ-Z0eXuk-3" target="vs6JcDgXwGCLQ-Z0eXuk-1">
          <mxGeometry relative="1" as="geometry" />
        </mxCell>
        <mxCell id="vs6JcDgXwGCLQ-Z0eXuk-14" value="&lt;font style=&quot;font-size: 14px;&quot;&gt;doctor.d1&lt;/font&gt;" style="edgeLabel;html=1;align=center;verticalAlign=middle;resizable=0;points=[];" vertex="1" connectable="0" parent="vs6JcDgXwGCLQ-Z0eXuk-11">
          <mxGeometry x="0.2286" relative="1" as="geometry">
            <mxPoint y="-11" as="offset" />
          </mxGeometry>
        </mxCell>
        <mxCell id="vs6JcDgXwGCLQ-Z0eXuk-13" value="&lt;font style=&quot;font-size: 14px;&quot;&gt;doctor.d2&lt;/font&gt;" style="edgeStyle=orthogonalEdgeStyle;rounded=0;orthogonalLoop=1;jettySize=auto;html=1;exitX=0;exitY=1;exitDx=0;exitDy=0;entryX=1;entryY=0.75;entryDx=0;entryDy=0;" edge="1" parent="1">
          <mxGeometry x="0.6" y="-10" relative="1" as="geometry">
            <mxPoint x="450" y="170" as="sourcePoint" />
            <mxPoint x="240" y="360" as="targetPoint" />
            <Array as="points">
              <mxPoint x="390" y="170" />
              <mxPoint x="390" y="360" />
            </Array>
            <mxPoint as="offset" />
          </mxGeometry>
        </mxCell>
        <mxCell id="vs6JcDgXwGCLQ-Z0eXuk-3" value="&lt;font style=&quot;font-size: 16px;&quot;&gt;Exchange&lt;/font&gt;" style="rhombus;whiteSpace=wrap;html=1;" vertex="1" parent="1">
          <mxGeometry x="420" y="80" width="120" height="120" as="geometry" />
        </mxCell>
        <mxCell id="vs6JcDgXwGCLQ-Z0eXuk-4" value="&lt;font style=&quot;font-size: 13px;&quot;&gt;Examination Request&lt;br&gt;technician.[part]&lt;/font&gt;" style="endArrow=classic;html=1;rounded=0;exitX=1;exitY=0.25;exitDx=0;exitDy=0;entryX=0;entryY=0;entryDx=0;entryDy=0;" edge="1" parent="1" source="vs6JcDgXwGCLQ-Z0eXuk-1" target="vs6JcDgXwGCLQ-Z0eXuk-3">
          <mxGeometry x="-0.0476" y="20" width="50" height="50" relative="1" as="geometry">
            <mxPoint x="560" y="600" as="sourcePoint" />
            <mxPoint x="610" y="550" as="targetPoint" />
            <mxPoint as="offset" />
          </mxGeometry>
        </mxCell>
        <mxCell id="vs6JcDgXwGCLQ-Z0eXuk-10" style="edgeStyle=orthogonalEdgeStyle;rounded=0;orthogonalLoop=1;jettySize=auto;html=1;exitX=0;exitY=0.25;exitDx=0;exitDy=0;entryX=1;entryY=1;entryDx=0;entryDy=0;" edge="1" parent="1" source="vs6JcDgXwGCLQ-Z0eXuk-5" target="vs6JcDgXwGCLQ-Z0eXuk-3">
          <mxGeometry relative="1" as="geometry">
            <Array as="points">
              <mxPoint x="760" y="300" />
              <mxPoint x="760" y="170" />
            </Array>
          </mxGeometry>
        </mxCell>
        <mxCell id="vs6JcDgXwGCLQ-Z0eXuk-5" value="&lt;font style=&quot;font-size: 17px;&quot;&gt;Technician 2&lt;br&gt;Elbow, Knee&lt;/font&gt;" style="whiteSpace=wrap;html=1;aspect=fixed;" vertex="1" parent="1">
          <mxGeometry x="810" y="270" width="120" height="120" as="geometry" />
        </mxCell>
        <mxCell id="vs6JcDgXwGCLQ-Z0eXuk-12" value="&lt;font style=&quot;font-size: 17px;&quot;&gt;Doctor&lt;br&gt;D2&lt;/font&gt;" style="whiteSpace=wrap;html=1;aspect=fixed;" vertex="1" parent="1">
          <mxGeometry x="120" y="270" width="120" height="120" as="geometry" />
        </mxCell>
      </root>
    </mxGraphModel>
  </diagram>
</mxfile>
